. 
 
http://www.torrenting.com          :     Once & For all ;)


               www . Torrenting . Com 

(((((((((((((= Enjoy No RAR releases =))))))))))))))))))))


...................................NFO:....................................

.                                                                
 @@@@@@@   @@@  @@@  @@@  @@@@@@@@  @@@@@@@   @@@@@@    @@@  @@@@@@@  @@@ @@@ 
 @@@@@@@@  @@@  @@@  @@@  @@@@@@@@  @@@@@@@@  @@@@@@@   @@@  @@@@@@@  @@@ @@@ 
 @@!  @@@  @@!  @@!  @@@  @@!       @@!  @@@  !@@       @@!    @@!    @@! !@@ 
 !@!  @!@  !@!  !@!  @!@  !@!       !@!  @!@  !@!       !@!    !@!    !@! @!! 
 @!@  !@!  !!@  @!@  !@!  @!!!:!    @!@!!@!   !!@@!!    !!@    @!!     !@!@!  
 !@!  !!!  !!!  !@!  !!!  !!!!!:    !!@!@!     !!@!!!   !!!    !!!      @!!!  
 !!:  !!!  !!:  :!:  !!:  !!:       !!: :!!        !:!  !!:    !!:      !!:   
 :!:  !:!  :!:   ::!!:!   :!:       :!:  !:!      !:!   :!:    :!:      :!:   
 :::: ::   ::    ::::     :: ::::   ::   :::  :::: ::    ::     ::       ::   
 :: :  :   :       :      : :: ::    :   : :  :: : :    :       :        :       


General
Complete name                    : Just Henry 2011 DiVERSiTY.avi
Format                           : AVI
Format/Info                      : Audio Video Interleave
File size                        : 882 MiB
Duration                         : 1h 39mn
Overall bit rate                 : 1 241 Kbps
Encoder                          : usagi
Source                           : custom DVD-R thnx Drentje
IMDb                             : http://www.imdb.com/title/tt2144753/

Video
ID                               : 0
Format                           : MPEG-4 Visual
Format profile                   : Advanced Simple@L5
Format settings, BVOP            : 2
Format settings, QPel            : No
Format settings, GMC             : No warppoints
Format settings, Matrix          : Default (H.263)
Codec ID                         : XVID
Codec ID/Hint                    : XviD
Duration                         : 1h 39mn
Bit rate                         : 785 Kbps
Width                            : 720 pixels
Height                           : 384 pixels
Display aspect ratio             : 1.875
Frame rate                       : 25.000 fps
Color space                      : YUV
Chroma subsampling               : 4:2:0
Bit depth                        : 8 bits
Scan type                        : Progressive
Compression mode                 : Lossy
Bits/(Pixel*Frame)               : 0.114
Stream size                      : 558 MiB (63%)
Writing library                  : XviD 1.2.1 (UTC 2008-12-04)

Audio
ID                               : 1
Format                           : AC-3
Format/Info                      : Audio Coding 3
Mode extension                   : CM (complete main)
Codec ID                         : 2000
Duration                         : 1h 39mn
Bit rate mode                    : Constant
Bit rate                         : 448 Kbps
Channel(s)                       : 2 channels
Channel positions                : Front: L R
Sampling rate                    : 48.0 KHz
Bit depth                        : 16 bits
Compression mode                 : Lossy
Stream size                      : 319 MiB (36%)
Alignment                        : Aligned on interleaves
Interleave, duration             : 64 ms (1.60 video frames)
Interleave, preload duration     : 192 ms
Title                            : VTS_01_1 T80 2_0ch 224Kbps DELAY 0ms_new




Plot
When his father's World War II war medal is posted to him, Henry decides to investigate the mysterious 
circumstances surrounding his death. But is Henry prepared for the truth?

Cast
Josh Bolt	 ...	Henry
Charlie Clark	 ...	Grace (as Charlie May Clark)
John Henshaw	 ...	Charlie
Elaine Cassidy	 ...	Maureen
Dean Andrews	 ...	Bill
Sheila Hancock	 ...	Gran
Perry Millward	 ...	Paul Jeffries


LOOKING FOR : Untouched DVD-R's, DVD Screeners, Early Releases DVD's, CAM's, 
and good quality LINE audio. 
Contact DiVERSiTY and let us know.  
diversity at hushmail dot com   



Greets
To Everyone who makes p2p possible...... Thanks.